<svg width="1920" height="1080" viewBox="0 0 1920 1080" xmlns="http://www.w3.org/2000/svg"><rect width="1920" height="1080" fill="#30ccf3"/><path d="M 0,1080 C 0,1080 0,180 0,180 C 93.78947368421055,194.77511961722487 187.5789473684211,209.55023923444975 331,196 C 474.4210526315789,182.44976076555025 667.4736842105262,140.57416267942585 818,127 C 968.5263157894738,113.42583732057415 1076.5263157894738,128.15311004784692 1190,151 C 1303.4736842105262,173.84688995215308 1422.421052631579,204.81339712918663 1545,211 C 1667.578947368421,217.18660287081337 1793.7894736842104,198.5933014354067 1920,180 C 1920,180 1920,1080 1920,1080 Z" fill="#4750c2" opacity="0.09999999999999999"/><path d="M 0,1080 C 0,1080 0,360 0,360 C 116.1531100478469,364.8038277511962 232.3062200956938,369.60765550239233 363,357 C 493.6937799043062,344.39234449760767 638.9282296650716,314.3732057416268 785,327 C 931.0717703349284,339.6267942583732 1077.9808612440193,394.8995215311005 1210,388 C 1342.0191387559807,381.1004784688995 1459.1483253588515,312.0287081339713 1575,297 C 1690.8516746411485,281.9712918660287 1805.4258373205744,320.9856459330143 1920,360 C 1920,360 1920,1080 1920,1080 Z" fill="#4750c2" opacity="0.19999999999999998"/><path d="M 0,1080 C 0,1080 0,540 0,540 C 139.45454545454544,527.1770334928229 278.9090909090909,514.3540669856459 392,511 C 505.0909090909091,507.64593301435406 591.8181818181819,513.7607655502392 734,531 C 876.1818181818181,548.2392344497608 1073.8181818181818,576.6028708133971 1195,574 C 1316.1818181818182,571.3971291866029 1360.909090909091,537.8277511961722 1469,527 C 1577.090909090909,516.1722488038278 1748.5454545454545,528.0861244019138 1920,540 C 1920,540 1920,1080 1920,1080 Z" fill="#4750c2" opacity="0.3"/><path d="M 0,1080 C 0,1080 0,720 0,720 C 92.36363636363635,740.688995215311 184.7272727272727,761.377990430622 318,741 C 451.2727272727273,720.622009569378 625.4545454545454,659.1770334928229 757,654 C 888.5454545454546,648.8229665071771 977.4545454545455,699.9138755980862 1119,722 C 1260.5454545454545,744.0861244019138 1454.7272727272725,737.1674641148325 1597,732 C 1739.2727272727275,726.8325358851675 1829.6363636363637,723.4162679425838 1920,720 C 1920,720 1920,1080 1920,1080 Z" fill="#4750c2" opacity="0.39999999999999997"/><path d="M 0,1080 C 0,1080 0,900 0,900 C 110.33492822966511,883.9904306220096 220.66985645933022,867.9808612440191 344,879 C 467.3301435406698,890.0191387559809 603.6555023923444,928.0669856459332 734,946 C 864.3444976076556,963.9330143540668 988.7081339712918,961.7511961722487 1124,937 C 1259.2918660287082,912.2488038277513 1405.511961722488,864.9282296650719 1540,855 C 1674.488038277512,845.0717703349281 1797.244019138756,872.5358851674641 1920,900 C 1920,900 1920,1080 1920,1080 Z" fill="#4750c2" opacity="0.49999999999999994"/></svg>